HIERARCHY
ROOT RootJoint
{
    OFFSET   0.000000   0.000000   0.000000
    CHANNELS 6 Xposition Yposition Zposition Xrotation Yrotation Zrotation
    JOINT pelvis_lowerback
    {
        OFFSET   0.000000   0.093605   0.000000
        CHANNELS 3 Xrotation Yrotation Zrotation
        JOINT lowerback_torso
        {
            OFFSET   0.000000   0.100000   0.000000
            CHANNELS 3 Xrotation Yrotation Zrotation
            JOINT torso_head
            {
                OFFSET   0.000000   0.282350   0.000000
                CHANNELS 3 Xrotation Yrotation Zrotation
                End Site
                {
                    OFFSET   0.000000   0.192650   0.000000
                }
            }
            JOINT rTorso_Clavicle
            {
                OFFSET  -0.001000   0.157500   0.000000
                CHANNELS 3 Xrotation Yrotation Zrotation
                JOINT rShoulder
                {
                    OFFSET  -0.117647   0.000000   0.000000
                    CHANNELS 3 Xrotation Yrotation Zrotation
                    JOINT rElbow
                    {
                        OFFSET  -0.245000   0.000000   0.000000
                        CHANNELS 3 Xrotation Yrotation Zrotation
                        JOINT rWrist
                        {
                            OFFSET  -0.240000   0.000000   0.000000
                            CHANNELS 3 Xrotation Yrotation Zrotation
                            End Site
                            {
                                OFFSET  -0.116353  -0.002500   0.000000
                            }
                        }
                    }
                }
            }
            JOINT lTorso_Clavicle
            {
                OFFSET   0.001000   0.157500   0.000000
                CHANNELS 3 Xrotation Yrotation Zrotation
                JOINT lShoulder
                {
                    OFFSET   0.117647   0.000000   0.000000
                    CHANNELS 3 Xrotation Yrotation Zrotation
                    JOINT lElbow
                    {
                        OFFSET   0.245000   0.000000   0.000000
                        CHANNELS 3 Xrotation Yrotation Zrotation
                        JOINT lWrist
                        {
                            OFFSET   0.240000   0.000000   0.000000
                            CHANNELS 3 Xrotation Yrotation Zrotation
                            End Site
                            {
                                OFFSET   0.116353  -0.002500   0.000000
                            }
                        }
                    }
                }
            }
        }
    }
    JOINT rHip
    {
        OFFSET  -0.100000  -0.051395   0.000000
        CHANNELS 3 Xrotation Yrotation Zrotation
        JOINT rKnee
        {
            OFFSET   0.000000  -0.410000   0.000000
            CHANNELS 3 Xrotation Yrotation Zrotation
            JOINT rAnkle
            {
                OFFSET   0.000000  -0.390000   0.000000
                CHANNELS 3 Xrotation Yrotation Zrotation
                JOINT rToeJoint
                {
                    OFFSET   0.000000  -0.050000   0.130000
                    CHANNELS 3 Xrotation Yrotation Zrotation
                    End Site
                    {
                        OFFSET  -0.010000   0.002000   0.060000
                    }
                }
            }
        }
    }
    JOINT lHip
    {
        OFFSET   0.100000  -0.051395   0.000000
        CHANNELS 3 Xrotation Yrotation Zrotation
        JOINT lKnee
        {
            OFFSET   0.000000  -0.410000   0.000000
            CHANNELS 3 Xrotation Yrotation Zrotation
            JOINT lAnkle
            {
                OFFSET   0.000000  -0.390000   0.000000
                CHANNELS 3 Xrotation Yrotation Zrotation
                JOINT lToeJoint
                {
                    OFFSET   0.000000  -0.050000   0.130000
                    CHANNELS 3 Xrotation Yrotation Zrotation
                    End Site
                    {
                        OFFSET   0.010000   0.002000   0.060000
                    }
                }
            }
        }
    }
}
MOTION
Frames: 10
Frame Time:   0.008333
 -2.376719   0.925631   3.975860   0.000000   0.000000   0.000000   0.000000   0.000000   0.000000   0.000000   0.000000   0.000000   0.000000   0.000000   0.000000   0.000000   0.000000   0.000000   0.000000   0.000000   0.000000   0.000000   0.000000   0.000000   0.000000   0.000000   0.000000   0.000000   0.000000   0.000000   0.000000   0.000000   0.000000   0.000000   0.000000   0.000000   0.000000   0.000000   0.000000   0.000000   0.000000   0.000000   0.000000   0.000000   0.000000   0.000000   0.000000   0.000000   0.000000   0.000000   0.000000   0.000000   0.000000   0.000000   0.000000   0.000000   0.000000   0.000000   0.000000   0.000000   0.000000   0.000000   0.000000
 -2.376788   0.925837   3.973990  -1.034883   0.269384  -0.011755   1.813011   0.109494  -0.005007  -0.155286   0.041835  -0.022099  -0.278123   0.252875   0.045946   0.018907  -0.695025  -0.266026   0.645038  -0.377470   2.451447   0.065225   3.435318  -0.040102   0.174790  -1.419631  -2.455540  -0.387499  -0.037103  -0.018877   0.055234  -0.224786  -1.927570   0.060686  -3.474797   0.010565   0.112078   1.857797   2.389035  -0.237166  -0.205701  -0.000786   3.484005   0.000427   0.001921  -1.050628  -0.190858   0.468459  -0.175869   0.000698   0.000204   0.259628  -0.122174   0.061205   2.254378  -0.000872   0.002919  -1.721466  -0.305389  -0.060013   0.315617   0.000026  -0.000437
 -2.376956   0.926236   3.971540  -2.285868   0.763492  -0.016804   3.730735   0.146066  -0.013644  -0.042967  -0.012103  -0.055030  -0.473224   0.512537   0.094610   0.050685  -1.239350   0.053338   1.279614  -0.567334   5.371535   0.149492   6.768360  -0.076261   0.387687  -1.877496  -4.304576  -0.755605  -0.346898  -0.629797   0.076118  -0.710046  -4.196924   0.145014  -7.124318   0.025322   0.226812   2.606266   4.155722  -0.593310  -0.388777  -0.032889   7.124114   0.002523   0.011218  -2.153797  -0.362055   0.876620  -2.323823   0.007285  -0.002043   0.664198  -0.242479   0.164654   4.668813  -0.001910   0.010363  -3.319569  -0.592158  -0.127959   0.577454  -0.000023  -0.000149
 -2.377216   0.926457   3.968888  -3.586737   1.436532   0.003290   5.618115   0.102761  -0.030842   0.170142  -0.146332  -0.090409  -0.634939   0.757067   0.140905   0.085634  -1.624960   0.770339   1.885369  -0.613485   8.515771   0.231675   9.920581  -0.103819   0.609524  -1.953941  -5.451221  -1.109183  -0.843234  -1.614165   0.061248  -1.330765  -6.622588   0.234796 -10.841406   0.038832   0.354783   2.818824   5.230933  -1.067418  -0.563913  -0.094527  10.835156   0.006553   0.024453  -3.121083  -0.536088   1.263663  -3.414243   0.008826  -0.004195   1.143116  -0.350700   0.297057   6.981235  -0.002406   0.020004  -4.808350  -0.856870  -0.200551   0.821455  -0.000098   0.000532
 -2.377535   0.926230   3.966263  -4.881819   2.244866   0.055436   7.434025  -0.001966  -0.048981   0.418455  -0.338541  -0.119141  -0.782230   0.985290   0.181741   0.121250  -1.898365   1.757965   2.445643  -0.556506  11.687417   0.300985  12.887472  -0.122910   0.831394  -1.842752  -6.022597  -1.453391  -1.449241  -2.826908   0.013066  -2.021385  -9.103324   0.319860 -14.598659   0.049425   0.491491   2.745601   5.772710  -1.618415  -0.726999  -0.180927  14.572287   0.012495   0.039264  -3.986928  -0.705685   1.628017  -3.933025   0.008273  -0.005169   1.661687  -0.447694   0.451750   9.158306  -0.002137   0.029969  -6.198628  -1.101125  -0.275738   1.038224  -0.000162   0.001331
 -2.377895   0.925365   3.963802  -6.149322   3.143017   0.142907   9.161819  -0.150512  -0.063442   0.674960  -0.571656  -0.141673  -0.920515   1.198514   0.218851   0.155039  -2.094839   2.900030   2.961616  -0.427369  14.807829   0.353657  15.672320  -0.134910   1.048006  -1.630964  -6.197406  -1.792237  -2.116348  -4.169155  -0.065561  -2.745807 -11.573221   0.389877 -18.252083   0.055997   0.635788   2.467891   5.931729  -2.217673  -0.874796  -0.285390  18.310976   0.019921   0.053673  -4.778276  -0.866181   1.969578  -4.195389   0.007118  -0.005276   2.203755  -0.534410   0.623733  11.202787  -0.001206   0.039002  -7.497272  -1.326587  -0.351852   1.230191  -0.000206   0.002077
 -2.378289   0.923735   3.961582  -7.382168   4.090819   0.266481  10.796857  -0.328921  -0.073203   0.928372  -0.831742  -0.160369  -1.051372   1.397807   0.253038   0.186028  -2.240845   4.117732   3.435369  -0.250048  17.829243   0.389391  18.281427  -0.141171   1.255783  -1.367560  -6.109784  -2.127325  -2.807707  -5.573435  -0.170480  -3.475711 -13.989968   0.438986 -21.684166   0.058438   0.782206   2.057356   5.825973  -2.849803  -1.006618  -0.401539  22.035307   0.028199   0.066275  -5.513996  -1.015956   2.288278  -4.399971   0.005992  -0.005224   2.761609  -0.611877   0.808463  13.123321   0.000169   0.046401  -8.710153  -1.534835  -0.427611   1.401308  -0.000230   0.002691
 -2.378506   0.920850   3.959104  -7.963787   4.809851   0.291804  11.828442  -0.449537   0.017530   0.995083  -1.037805  -0.118043  -1.321062   1.376892   0.206165   0.270689  -2.297779   4.757336   3.916294  -0.082459  20.497193   0.406149  21.049879  -0.146296   1.425924  -1.236493  -5.187554  -2.242822  -3.249486  -6.369715   0.023899  -4.128181 -16.631380   0.481464 -25.441854   0.075092   0.909234   1.743742   5.208926  -4.286792  -1.323753  -0.548350  25.872580   0.034501   0.061927  -6.066195  -1.170697   2.639398  -5.531951   0.006261  -0.005316   2.884498  -0.734549   1.143007  14.107847  -0.000264   0.042742  -9.059787  -1.857482  -0.205344   1.504572  -0.000576   0.002437
 -2.378662   0.916939   3.956678  -8.470769   5.479551   0.328171  12.808738  -0.567289   0.125170   1.010968  -1.218714  -0.080234  -1.597565   1.345055   0.175272   0.332153  -2.322633   5.124290   4.343493   0.105471  22.825878   0.401260  23.651563  -0.146703   1.600718  -1.018944  -4.433223  -2.354527  -3.653497  -6.984511   0.182782  -4.747858 -19.024728   0.495535 -28.968338   0.085669   1.052591   1.307631   4.580641  -5.767498  -1.627905  -0.737593  29.637389   0.039278   0.055980  -6.605982  -1.298684   2.968615  -6.872550   0.006310  -0.005192   2.974389  -0.864407   1.549052  14.886643  -0.001145   0.038446  -9.384478  -2.162007   0.000795   1.640620  -0.001059   0.002297
 -2.378809   0.912124   3.954409  -8.970434   6.139818   0.403921  13.751979  -0.683188   0.219115   1.029055  -1.389297  -0.061515  -1.854483   1.313841   0.153574   0.377142  -2.338034   5.318977   4.725062   0.294077  24.890866   0.383482  26.084794  -0.143904   1.773955  -0.781427  -3.921473  -2.475868  -4.036661  -7.468378   0.301112  -5.336742 -21.193725   0.490337 -32.265994   0.090686   1.194832   0.851189   4.086711  -7.221085  -1.901567  -0.951202  33.351353   0.042317   0.051182  -7.139195  -1.395817   3.277412  -8.441876   0.006526  -0.005696   3.062736  -0.990168   1.997149  15.587419  -0.002207   0.034731  -9.687772  -2.447190   0.191937   1.765870  -0.001460   0.002193
